<svg xmlns="http://www.w3.org/2000/svg" viewBox="0 0 64 64" role="img" aria-label="AWS logo">
  <path fill="#f6f9ff" d="M18.7 30.6c0 1.4.2 2.5.6 3.2.5.8 1.2 1.2 2.1 1.2 1.3 0 2.4-.8 3.3-2.3v-4.4c-.7-.2-1.5-.3-2.4-.3-2.4 0-3.6.9-3.6 2.6Zm9.9 7.1h-3.4l-.3-1.8c-1.3 1.5-2.9 2.2-4.9 2.2-1.6 0-2.9-.6-3.9-1.8-1-1.2-1.5-2.8-1.5-4.9 0-4.1 2.5-6.1 7.5-6.1 1 0 1.9.1 2.7.3v-1.1c0-1.9-1-2.8-3.1-2.8-1.7 0-3.3.4-4.9 1.1l-.9-3.1c1.9-.9 4.1-1.4 6.4-1.4 4.2 0 6.3 2 6.3 6v13.4Zm19.1 0h-3.9l-2.4-11.8-2.4 11.8h-4l-4.7-19h4.3l2.6 12.8 2.5-12.8h3.7l2.5 12.8 2.6-12.8h4l-4.8 19Z"/>
  <path fill="#ff9900" d="M49.8 45.4c-9.5 7-23.4 6.2-31.9 1.5-.8-.4-.1-1.4.7-1.1 9.4 3.6 20.3 3.2 29.7-2.6 1.4-.9 2.9 1.1 1.5 2.2Z"/>
  <path fill="#ff9900" d="M52.7 42.1c-1.2-1.5-7.9-.7-10.9-.4-.9.1-1-1-.2-1.6 5.5-3.9 14.5-2.8 15.5-1.5 1.1 1.3-.3 10.3-5.4 14.5-.8.6-1.5.3-1.2-.6 1-2.8 3.4-8.9 2.2-10.4Z"/>
</svg>
