<svg xmlns="http://www.w3.org/2000/svg" viewBox="0 0 64 64" role="img" aria-label="Power BI logo">
  <rect x="10" y="36" width="10" height="18" rx="3" fill="#f2c811"/>
  <rect x="24" y="26" width="10" height="28" rx="3" fill="#f9d84a"/>
  <rect x="38" y="12" width="10" height="42" rx="3" fill="#d9a300"/>
  <path fill="#f6f9ff" d="M14 10h28c4.4 0 8 3.6 8 8v29c0 4.4-3.6 8-8 8H14c-4.4 0-8-3.6-8-8V18c0-4.4 3.6-8 8-8Zm0 4c-2.2 0-4 1.8-4 4v29c0 2.2 1.8 4 4 4h28c2.2 0 4-1.8 4-4V18c0-2.2-1.8-4-4-4H14Z" opacity=".3"/>
</svg>
