<svg xmlns="http://www.w3.org/2000/svg" viewBox="0 0 64 64" role="img" aria-label="Python logo">
  <path fill="#3776ab" d="M32 4c-12.4 0-15.8 3.2-15.8 8.2v6.3h16.4v3.1H10.2C5.6 21.6 2 25.6 2 32s3.6 10.4 8.2 10.4h5.1v-7.1c0-5.3 4.6-9.8 9.9-9.8h15.7c4.5 0 8.2-3.7 8.2-8.2v-5.1C49.1 7.2 44.4 4 32 4Zm-8.9 6.2a3 3 0 1 1 0 6 3 3 0 0 1 0-6Z"/>
  <path fill="#ffd43b" d="M31.9 60c12.4 0 15.8-3.2 15.8-8.2v-6.3H31.3v-3.1h22.4c4.6 0 8.2-4 8.2-10.4s-3.6-10.4-8.2-10.4h-5.1v7.1c0 5.3-4.6 9.8-9.9 9.8H23c-4.5 0-8.2 3.7-8.2 8.2v5.1C14.8 56.8 19.5 60 31.9 60Zm8.9-6.2a3 3 0 1 1 0-6 3 3 0 0 1 0 6Z"/>
</svg>
